# xmcd
#
# Track frame offsets:
#	185
#	21582
#	41537
#	59212
#	73035
#	90207
#	112970
#	132960
#	159897
#	176935
#	194830
#	213550
#	231232
#	249310
#	265780
#	285197
#	303265
#	320137
#
# Disc length: 4486 seconds
#
# Revision: 1
# Processed by: cddbd v1.5.2PL0 Copyright (c) Steve Scherf et al.
# Submitted via: audiograbber 1.83.01
#
DISCID=09118412
DTITLE=Donna Summer - I Remember Yesterday (1977) The Wanderer (1980)
DYEAR=1995
DGENRE=Disco
TTITLE0=I Remember Yesterday
TTITLE1=Love's Unkind
TTITLE2=Back In Love Again
TTITLE3=I Remember Yesterday (Reprise)
TTITLE4=Black Lady
TTITLE5=Take Me
TTITLE6=Can't We Just Sit Down (And Talk It Over)
TTITLE7=I Feel Love
TTITLE8=The Wanderer
TTITLE9=Looking Up
TTITLE10=Breakdown
TTITLE11=Grand Illusion
TTITLE12=Running For Cover 
TTITLE13=Cold Love
TTITLE14=Who Do You Think You're Foolin'
TTITLE15=Nightlife
TTITLE16=Stop Me
TTITLE17=I Believe In Jesus
EXTD=
EXTT0=
EXTT1=
EXTT2=
EXTT3=
EXTT4=
EXTT5=
EXTT6=
EXTT7=
EXTT8=
EXTT9=
EXTT10=
EXTT11=
EXTT12=
EXTT13=
EXTT14=
EXTT15=
EXTT16=
EXTT17=
PLAYORDER=
